<svg width="42" height="42" viewBox="0 0 42 42" fill="none" xmlns="http://www.w3.org/2000/svg">
<g id="ant-design:facebook-filled">
<path id="Vector" d="M36.2103 5.21045H6.75117C6.04271 5.21045 5.47034 5.78282 5.47034 6.49128V35.9504C5.47034 36.6589 6.04271 37.2312 6.75117 37.2312H36.2103C36.9187 37.2312 37.4911 36.6589 37.4911 35.9504V6.49128C37.4911 5.78282 36.9187 5.21045 36.2103 5.21045ZM32.5119 14.5565H29.9542C27.9489 14.5565 27.5607 15.5091 27.5607 16.91V19.996H32.3478L31.7234 24.8272H27.5607V37.2312H22.5694V24.8312H18.3947V19.996H22.5694V16.4337C22.5694 12.299 25.0951 10.0456 28.7855 10.0456C30.5546 10.0456 32.0716 10.1777 32.5159 10.2377V14.5565H32.5119Z" fill="white"/>
</g>
</svg>
