<svg width="42" height="42" viewBox="0 0 42 42" fill="none" xmlns="http://www.w3.org/2000/svg">
<g id="ant-design:linkedin-filled">
<path id="Vector" d="M36.1981 5.21045H6.73896C6.0305 5.21045 5.45813 5.78282 5.45813 6.49128V35.9504C5.45813 36.6589 6.0305 37.2312 6.73896 37.2312H36.1981C36.9065 37.2312 37.4789 36.6589 37.4789 35.9504V6.49128C37.4789 5.78282 36.9065 5.21045 36.1981 5.21045ZM14.9563 32.4962H10.2052V17.2142H14.9563V32.4962ZM12.5828 15.1249C12.0381 15.1249 11.5057 14.9634 11.0528 14.6608C10.6 14.3582 10.247 13.9281 10.0386 13.4249C9.83016 12.9217 9.77562 12.368 9.88188 11.8339C9.98813 11.2997 10.2504 10.809 10.6355 10.4239C11.0207 10.0388 11.5113 9.77648 12.0455 9.67022C12.5797 9.56397 13.1334 9.6185 13.6366 9.82693C14.1398 10.0354 14.5699 10.3883 14.8724 10.8412C15.175 11.294 15.3365 11.8264 15.3365 12.3711C15.3325 13.8921 14.0997 15.1249 12.5828 15.1249ZM32.7438 32.4962H27.9968V25.0633C27.9968 23.2902 27.9647 21.0127 25.5272 21.0127C23.0576 21.0127 22.6773 22.942 22.6773 24.9352V32.4962H17.9342V17.2142H22.4892V19.3036H22.5532C23.1856 18.1028 24.7346 16.834 27.0481 16.834C31.8593 16.834 32.7438 20 32.7438 24.1147V32.4962Z" fill="white"/>
</g>
</svg>
