<svg width="46" height="47" viewBox="0 0 46 47" fill="none" xmlns="http://www.w3.org/2000/svg">
<g id="bx:bx-map">
<path id="Vector" d="M23 27.0609C27.2282 27.0609 30.6667 23.6224 30.6667 19.3942C30.6667 15.166 27.2282 11.7275 23 11.7275C18.7719 11.7275 15.3334 15.166 15.3334 19.3942C15.3334 23.6224 18.7719 27.0609 23 27.0609ZM23 15.5609C25.1141 15.5609 26.8334 17.2801 26.8334 19.3942C26.8334 21.5083 25.1141 23.2275 23 23.2275C20.886 23.2275 19.1667 21.5083 19.1667 19.3942C19.1667 17.2801 20.886 15.5609 23 15.5609Z" fill="white"/>
<path id="Vector_2" d="M21.8885 42.0379C22.2129 42.2695 22.6015 42.3941 23.0001 42.3941C23.3987 42.3941 23.7874 42.2695 24.1118 42.0379C24.6945 41.6258 38.389 31.7377 38.3335 19.3944C38.3335 10.94 31.4545 4.06104 23.0001 4.06104C14.5457 4.06104 7.66679 10.94 7.66679 19.3848C7.61121 31.7377 21.3058 41.6258 21.8885 42.0379ZM23.0001 7.89437C29.3424 7.89437 34.5001 13.0521 34.5001 19.404C34.5404 27.9101 26.0898 35.548 23.0001 38.0531C19.9124 35.5461 11.4599 27.9063 11.5001 19.3944C11.5001 13.0521 16.6579 7.89437 23.0001 7.89437Z" fill="white"/>
</g>
</svg>
