<svg width="41" height="42" viewBox="0 0 41 42" fill="none" xmlns="http://www.w3.org/2000/svg">
<g id="ant-design:twitter-outlined">
<path id="Vector" d="M37.145 10.906C35.9202 11.4343 34.5873 11.8146 33.2144 11.9627C34.6398 11.1159 35.7072 9.77806 36.2164 8.20024C34.8788 8.99591 33.4136 9.55385 31.8855 9.84931C31.2469 9.16657 30.4745 8.62267 29.6165 8.2515C28.7585 7.88033 27.8332 7.68985 26.8983 7.69191C23.1159 7.69191 20.0739 10.7579 20.0739 14.5203C20.0739 15.0487 20.1379 15.577 20.242 16.0854C14.5783 15.7892 9.52705 13.0834 6.16887 8.94072C5.55697 9.98586 5.23632 11.1759 5.24026 12.387C5.24026 14.7565 6.44505 16.8459 8.28224 18.0746C7.19955 18.032 6.14222 17.7344 5.19624 17.2061V17.2901C5.19624 20.6083 7.54176 23.3581 10.6678 23.9905C10.0808 24.1429 9.47704 24.2209 8.87062 24.2226C8.42633 24.2226 8.00606 24.1786 7.58178 24.1186C8.44634 26.8243 10.964 28.7896 13.9619 28.8536C11.6164 30.6908 8.67849 31.7715 5.48843 31.7715C4.91605 31.7715 4.38771 31.7515 3.83936 31.6875C6.86532 33.6287 10.4556 34.7495 14.3222 34.7495C26.8743 34.7495 33.7428 24.3507 33.7428 15.3249C33.7428 15.0287 33.7428 14.7325 33.7227 14.4363C35.0516 13.4637 36.2164 12.2589 37.145 10.906Z" fill="white"/>
</g>
</svg>
